<svg width="1024" height="1024" viewBox="0 0 1024 1024" xmlns="http://www.w3.org/2000/svg" role="img" aria-label="TrainingLog app icon">
  <defs>
    <pattern id="knurl" patternUnits="userSpaceOnUse" width="12" height="12">
      <circle cx="6" cy="6" r="3.2" fill="#2F6BFF"/>
    </pattern>
  </defs>
  <rect x="0" y="0" width="1024" height="1024" fill="#2F6BFF"/>
  <g fill="#FFFFFF">
    <rect x="420" y="182" width="184" height="43" rx="16"/>
    <rect x="274" y="235" width="476" height="92" rx="26"/>
    <rect x="347" y="334" width="330" height="66" rx="20"/>
    <rect x="442" y="406" width="140" height="37" rx="13"/>
    <rect x="462" y="443" width="100" height="138" rx="20"/>
    <rect x="442" y="581" width="140" height="37" rx="13"/>
    <rect x="347" y="624" width="330" height="66" rx="20"/>
    <rect x="274" y="697" width="476" height="92" rx="26"/>
    <rect x="420" y="799" width="184" height="43" rx="16"/>
  </g>
  <rect x="462" y="453" width="100" height="118" rx="18" fill="url(#knurl)"/>
</svg>
